<svg width="30" height="30" viewBox="0 0 30 30" fill="none" xmlns="http://www.w3.org/2000/svg">
<path d="M13.75 8.4375C13.75 11.8982 11.5271 14.5 9 14.5C6.47293 14.5 4.25 11.8982 4.25 8.4375C4.25 4.97681 6.47293 2.375 9 2.375C11.5271 2.375 13.75 4.97681 13.75 8.4375ZM9 18.3125C10.2092 18.3125 11.338 17.9576 12.3472 17.375H12.6C15.2068 17.375 17.5 20.0647 17.5 23.625V25.3125C17.5 26.699 16.6177 27.625 15.75 27.625H2.25C1.3823 27.625 0.5 26.699 0.5 25.3125V23.625C0.5 20.0647 2.79324 17.375 5.4 17.375H5.65328C6.66557 17.9571 7.78997 18.3125 9 18.3125ZM26.5 9.375C26.5 12.3142 24.6099 14.5 22.5 14.5C20.3901 14.5 18.5 12.3142 18.5 9.375C18.5 6.43579 20.3901 4.25 22.5 4.25C24.6099 4.25 26.5 6.43579 26.5 9.375ZM22.5 17.8438C23.2803 17.8438 24.0056 17.6527 24.6734 17.375H24.75C27.2771 17.375 29.5 19.9768 29.5 23.4375C29.5 24.824 28.6177 25.75 27.75 25.75H20V23.625C20 21.4637 19.3743 19.4832 18.3447 17.9149C18.9387 17.5708 19.5783 17.375 20.25 17.375H20.3266C20.9944 17.6527 21.7197 17.8438 22.5 17.8438Z" stroke="#8E44AD"/>
</svg>
