<svg width="30" height="30" viewBox="0 0 30 30" fill="none" xmlns="http://www.w3.org/2000/svg">
<path d="M26.25 1.9617C26.7473 1.9617 27.2242 2.16837 27.5758 2.53626C27.9275 2.90415 28.125 3.40312 28.125 3.92339V19.617C28.125 20.1372 27.9275 20.6362 27.5758 21.0041C27.2242 21.372 26.7473 21.5786 26.25 21.5786H8.27625C7.28177 21.5789 6.3281 21.9924 5.625 22.7282L1.875 26.6516V3.92339C1.875 3.40312 2.07254 2.90415 2.42417 2.53626C2.77581 2.16837 3.25272 1.9617 3.75 1.9617H26.25ZM3.75 0C2.75544 0 1.80161 0.413356 1.09835 1.14913C0.395088 1.88491 0 2.88284 0 3.92339L0 29.0194C3.94029e-05 29.2134 0.0551111 29.4031 0.158245 29.5645C0.261379 29.7258 0.407938 29.8515 0.579374 29.9256C0.750809 29.9998 0.939414 30.019 1.12132 29.981C1.30322 29.9429 1.47024 29.8492 1.60125 29.7118L6.95063 24.1151C7.30217 23.7472 7.77901 23.5405 8.27625 23.5403H26.25C27.2446 23.5403 28.1984 23.127 28.9016 22.3912C29.6049 21.6554 30 20.6575 30 19.617V3.92339C30 2.88284 29.6049 1.88491 28.9016 1.14913C28.1984 0.413356 27.2446 0 26.25 0L3.75 0Z" fill="#8E44AD"/>
<path d="M5.625 6.86598C5.625 6.60584 5.72377 6.35636 5.89959 6.17242C6.0754 5.98847 6.31386 5.88513 6.5625 5.88513H23.4375C23.6861 5.88513 23.9246 5.98847 24.1004 6.17242C24.2762 6.35636 24.375 6.60584 24.375 6.86598C24.375 7.12612 24.2762 7.3756 24.1004 7.55954C23.9246 7.74349 23.6861 7.84683 23.4375 7.84683H6.5625C6.31386 7.84683 6.0754 7.74349 5.89959 7.55954C5.72377 7.3756 5.625 7.12612 5.625 6.86598ZM5.625 11.7702C5.625 11.5101 5.72377 11.2606 5.89959 11.0767C6.0754 10.8927 6.31386 10.7894 6.5625 10.7894H23.4375C23.6861 10.7894 23.9246 10.8927 24.1004 11.0767C24.2762 11.2606 24.375 11.5101 24.375 11.7702C24.375 12.0304 24.2762 12.2798 24.1004 12.4638C23.9246 12.6477 23.6861 12.7511 23.4375 12.7511H6.5625C6.31386 12.7511 6.0754 12.6477 5.89959 12.4638C5.72377 12.2798 5.625 12.0304 5.625 11.7702ZM5.625 16.6745C5.625 16.4143 5.72377 16.1648 5.89959 15.9809C6.0754 15.7969 6.31386 15.6936 6.5625 15.6936H15.9375C16.1861 15.6936 16.4246 15.7969 16.6004 15.9809C16.7762 16.1648 16.875 16.4143 16.875 16.6745C16.875 16.9346 16.7762 17.1841 16.6004 17.368C16.4246 17.552 16.1861 17.6553 15.9375 17.6553H6.5625C6.31386 17.6553 6.0754 17.552 5.89959 17.368C5.72377 17.1841 5.625 16.9346 5.625 16.6745Z" fill="#8E44AD"/>
</svg>
