<svg width="16" height="20" viewBox="0 0 16 20" fill="none" xmlns="http://www.w3.org/2000/svg">
<path d="M6.5 2.18V0.5H9.5V2.18V2.57494L9.8842 2.6664C11.0499 2.94394 11.9385 3.58178 12.5447 4.53942C13.1574 5.50736 13.5 6.83288 13.5 8.5V14V14.309L13.7764 14.4472L15.5 15.309V16.5H0.5V15.309L2.22361 14.4472L2.5 14.309V14V8.5V8.49067L2.49965 8.48134C2.45033 7.16044 2.74797 5.84971 3.36286 4.67971C3.65158 4.1712 4.04441 3.72934 4.5157 3.38308C4.98895 3.03537 5.53055 2.79196 6.10477 2.6689L6.5 2.5842V2.18ZM8.94539 19.1569C8.76917 19.3013 8.56331 19.4047 8.34271 19.46H8.30147L8.25103 19.4705C8.16712 19.488 8.08181 19.4978 7.99614 19.5C7.59919 19.4964 7.2193 19.3376 6.93778 19.0575C6.77807 18.8986 6.65726 18.7078 6.58161 18.5H9.41094C9.40127 18.5288 9.39073 18.5573 9.37932 18.5855C9.28163 18.8074 9.13297 19.0032 8.94539 19.1569Z" stroke="#8E44AD"/>
</svg>
