<svg width="30" height="30" viewBox="0 0 30 30" fill="none" xmlns="http://www.w3.org/2000/svg">
<path d="M13.75 8.4375C13.75 11.8982 11.5271 14.5 9 14.5C6.47293 14.5 4.25 11.8982 4.25 8.4375C4.25 4.97681 6.47293 2.375 9 2.375C11.5271 2.375 13.75 4.97681 13.75 8.4375ZM9 18.3125C10.2092 18.3125 11.338 17.9576 12.3472 17.375H12.6C15.2068 17.375 17.5 20.0647 17.5 23.625V25.3125C17.5 26.699 16.6177 27.625 15.75 27.625H2.25C1.3823 27.625 0.5 26.699 0.5 25.3125V23.625C0.5 20.0647 2.79324 17.375 5.4 17.375H5.65328C6.66557 17.9571 7.78997 18.3125 9 18.3125Z" stroke="#8E44AD"/>
<path d="M18.4773 14.4034V8.77841H19.4318V14.4034H18.4773ZM16.142 12.0682V11.1136H21.767V12.0682H16.142Z" fill="#8E44AD"/>
</svg>
